<svg xmlns="http://www.w3.org/2000/svg" width="2033.909" height="710.201" viewBox="0 0 2033.909 710.201">
  <path id="Subtraction_2" data-name="Subtraction 2" d="M-989.092,674.394h0c-136.526-.523-328.406-4.871-570.31-12.922-193.508-6.441-419.3-15.253-671.1-26.193-123.626-5.371-320.938-14.2-558.871-25.763-142.851-6.942-232.76-11.587-233.628-11.632v-.008a21.246,21.246,0,0,1,.781-4.472,64.715,64.715,0,0,1,5.406-13.349,144.784,144.784,0,0,1,14.626-22.084,290.5,290.5,0,0,1,28.443-30.685c28.553-27.049,67.823-56.2,116.721-86.636,29.034-18.073,61.828-36.808,97.469-55.682,39.209-20.764,82.837-42.211,129.669-63.746,36-16.554,71.989-31.822,106.965-45.378,33.455-12.967,67.134-24.813,100.1-35.21,31.281-9.865,63.063-18.783,94.464-26.507,29.452-7.245,59.75-13.729,90.054-19.272,28.322-5.18,56.737-9.6,86.87-13.5,26.938-3.492,54.714-6.5,84.913-9.2,56.232-5.025,110.94-8.1,168.861-11.359h.012c74.675-4.2,151.892-8.542,234.568-17.452,21.653-2.334,43.43-5.2,64.726-8.513,20.188-3.143,40.573-6.788,60.589-10.836,18.816-3.8,37.928-8.09,56.805-12.738,17.536-4.318,35.494-9.1,53.374-14.22,30.876-8.839,62.889-19.047,97.869-31.207,30.871-10.732,60.089-21.585,88.346-32.08l.038-.014c44.977-16.707,87.46-32.487,128.855-44.844,22.112-6.6,42.278-11.745,61.65-15.728,10.42-2.142,20.771-3.971,30.765-5.436,10.421-1.527,20.84-2.715,30.967-3.529v710.2Z" transform="translate(3023.001 35.807)" fill="#fff"/>
</svg>
