<svg xmlns="http://www.w3.org/2000/svg" width="1419.808" height="774.681" viewBox="0 0 1419.808 774.681">
  <path id="Subtraction_1" data-name="Subtraction 1" d="M-2725.466,848.539c-41.15,0-78.224-.729-110.191-2.168-33.516-1.509-62.358-3.841-85.727-6.93-21.336-2.821-40.175-6.007-56-9.472-15.4-3.371-28.412-7.11-38.683-11.112a110.327,110.327,0,0,1-13.318-6.136,56.7,56.7,0,0,1-9.551-6.5,29.2,29.2,0,0,1-5.972-6.857,18.447,18.447,0,0,1-2.58-7.2,18.761,18.761,0,0,1,.594-7.417,29.466,29.466,0,0,1,3.532-7.719c3.2-5.094,8.3-10.575,15.158-16.292a213.615,213.615,0,0,1,24.752-17.34c9.3-5.7,20.372-11.853,32.908-18.279,22.175-11.366,49.037-23.74,84.537-38.941,31.4-13.445,64.68-27.02,99.915-41.393,83.476-34.051,169.794-69.261,233.772-104.166,33.228-18.128,63.244-32.993,91.764-45.445,24.849-10.849,45.222-18.408,63.2-25.078,18.714-6.944,34.876-12.941,52.541-21.15a452.822,452.822,0,0,0,59.406-33.618c23.961-15.8,51.5-36.294,84.186-62.653,35-28.223,76.5-63.634,126.878-108.256,65.561-58.071,139.314-102.2,219.21-131.152,18.542-6.72,37.608-12.673,56.668-17.7,18.57-4.893,37.58-9.019,56.5-12.264,18.454-3.165,37.254-5.566,55.878-7.136,18.187-1.534,36.624-2.312,54.8-2.312,1.135,0,2.271,0,3.473.01V781.975c-211.906,18.923-405.087,34.116-574.175,45.158-102.678,6.706-197.129,11.907-280.729,15.458-45.28,1.924-88.245,3.4-127.7,4.386C-2651.85,848.013-2690.556,848.538-2725.466,848.539Z" transform="translate(3047.623 -73.858)" fill="#fff"/>
</svg>
