<svg xmlns="http://www.w3.org/2000/svg" width="3229.907" height="322.831" viewBox="0 0 3229.907 322.831">
  <path id="Subtraction_2" data-name="Subtraction 2" d="M206.907,463.394h0c-216.806-.316-521.518-2.946-905.67-7.815-307.266-3.894-665.828-9.224-1065.725-15.84-196.547-3.252-510.067-8.595-887.5-15.58-221.262-4.095-364.922-6.915-370.929-7.033l-.078,0h0v0a6.036,6.036,0,0,1,1.24-2.706c1.124-1.643,3.525-4.378,8.584-8.073a154.875,154.875,0,0,1,23.227-13.355,478.778,478.778,0,0,1,45.169-18.557c45.34-16.357,107.7-33.984,185.355-52.392,46.109-10.93,98.185-22.259,154.784-33.673,62.26-12.556,131.541-25.526,205.919-38.55,28.916-5.063,57.99-9.957,86.416-14.545,27.869-4.5,55.945-8.838,83.448-12.9,53.129-7.842,106.612-15.006,158.965-21.293,49.671-5.965,100.142-11.359,150.012-16.03,46.774-4.382,94.889-8.3,143.008-11.655,44.977-3.133,90.1-5.8,137.953-8.166,42.783-2.112,86.891-3.932,134.844-5.564,89.266-3.038,176.118-4.9,268.07-6.868l.085,0c118.586-2.539,241.209-5.165,372.519-10.554,27.132-1.113,54.912-1.678,82.568-1.678,29.775,0,60.348.654,90.871,1.945,29.13,1.232,59.1,3.082,89.085,5.5,28.445,2.292,57.793,5.166,87.228,8.542,27.7,3.177,56.4,6.905,85.3,11.08,51.864,7.492,105.682,16.567,164.531,27.743,46.183,8.77,94.285,18.579,155.967,31.8,25.526,5.473,50.879,10.993,75.4,16.331l.036.008c84.638,18.428,164.582,35.833,239.323,48.712V463.394Z" transform="translate(3023 -140.564)" fill="#fff"/>
</svg>
