<svg xmlns="http://www.w3.org/2000/svg" width="1919.001" height="316.177" viewBox="0 0 1919.001 316.177">
  <path id="Intersection_1" data-name="Intersection 1" d="M-749.245,252.579c-299.008-3.894-647.932-9.223-1037.082-15.84-178.47-3.034-456.022-7.889-790.765-14.2V79.873c53.455-10.83,111.7-21.924,173.578-33.058,28.138-5.063,56.431-9.957,84.094-14.545,27.12-4.5,54.441-8.838,81.2-12.9,51.7-7.842,103.747-15.006,154.693-21.292,48.336-5.965,97.451-11.359,145.98-16.031,45.517-4.381,92.339-8.3,139.165-11.654,43.768-3.133,87.68-5.8,134.244-8.166,41.633-2.112,84.556-3.932,131.22-5.564,86.866-3.038,171.385-4.9,260.866-6.868l.083,0c115.4-2.54,234.726-5.165,362.507-10.554,26.4-1.113,53.436-1.678,80.349-1.678,28.974,0,58.727.654,88.429,1.945,27.019,1.174,54.782,2.91,82.589,5.162V253.741Q-702.873,253.183-749.245,252.579Z" transform="translate(2577.093 62.436)" fill="#fff"/>
</svg>
