<svg xmlns="http://www.w3.org/2000/svg" xmlns:xlink="http://www.w3.org/1999/xlink" width="258.817" height="254.447" viewBox="0 0 258.817 254.447">
  <defs>
    <clipPath id="clip-path">
      <rect id="Rectangle_56" data-name="Rectangle 56" width="225.846" height="137.308" fill="none"/>
    </clipPath>
  </defs>
  <g id="Group_2" data-name="Group 2" transform="translate(258.817 100.42) rotate(137)">
    <g id="Group_1" data-name="Group 1" clip-path="url(#clip-path)">
      <path id="Path_3" data-name="Path 3" d="M4.826,2.413A2.413,2.413,0,1,0,2.413,4.826,2.413,2.413,0,0,0,4.826,2.413" transform="translate(37.996 40.403)" fill="#efefef"/>
      <rect id="Rectangle_1" data-name="Rectangle 1" width="0.524" height="36.755" transform="translate(220.978 34.14) rotate(72.511)" fill="#48b2b4"/>
      <rect id="Rectangle_2" data-name="Rectangle 2" width="0.524" height="38.959" transform="translate(218.579 26.868) rotate(68.057)" fill="#48b2b4"/>
      <rect id="Rectangle_3" data-name="Rectangle 3" width="0.524" height="39.966" transform="translate(209.135 14.457) rotate(35.742)" fill="#48b2b4"/>
      <rect id="Rectangle_4" data-name="Rectangle 4" width="0.524" height="37.315" transform="translate(222.285 42.263) rotate(81.719)" fill="#48b2b4"/>
      <rect id="Rectangle_5" data-name="Rectangle 5" width="38.496" height="0.524" transform="translate(185.255 39.664) rotate(15.265)" fill="#48b2b4"/>
      <rect id="Rectangle_6" data-name="Rectangle 6" width="35.811" height="0.524" transform="translate(187.676 42.284) rotate(24.447)" fill="#48b2b4"/>
      <path id="Path_4" data-name="Path 4" d="M.228,0,0,.472,36.9,18.258,66.528,40.62l.315-.418L37.171,17.808l-.023-.011Z" transform="translate(145.506 29.918)" fill="#48b2b4"/>
      <rect id="Rectangle_7" data-name="Rectangle 7" width="36.336" height="0.524" transform="translate(184.748 47.263) rotate(27.479)" fill="#48b2b4"/>
      <path id="Path_5" data-name="Path 5" d="M13.983,0,0,33.156,32.547,14.249l-.263-.453L1.092,31.916,14.465.2Z" transform="translate(181.995 6.127)" fill="#48b2b4"/>
      <rect id="Rectangle_8" data-name="Rectangle 8" width="0.524" height="36.193" transform="translate(203.298 9.524) rotate(27.775)" fill="#48b2b4"/>
      <rect id="Rectangle_9" data-name="Rectangle 9" width="36.754" height="0.524" transform="translate(146.198 34.143) rotate(17.48)" fill="#48b2b4"/>
      <rect id="Rectangle_10" data-name="Rectangle 10" width="38.959" height="0.524" transform="translate(148.596 26.871) rotate(21.933)" fill="#48b2b4"/>
      <rect id="Rectangle_11" data-name="Rectangle 11" width="39.966" height="0.524" transform="matrix(0.584, 0.812, -0.812, 0.584, 158.044, 14.456)" fill="#48b2b4"/>
      <rect id="Rectangle_12" data-name="Rectangle 12" width="38.094" height="0.524" transform="matrix(0.99, 0.144, -0.144, 0.99, 144.892, 42.259)" fill="#48b2b4"/>
      <rect id="Rectangle_13" data-name="Rectangle 13" width="0.524" height="38.496" transform="translate(181.921 39.66) rotate(74.723)" fill="#48b2b4"/>
      <rect id="Rectangle_14" data-name="Rectangle 14" width="0.524" height="35.811" transform="translate(179.501 42.284) rotate(65.554)" fill="#48b2b4"/>
      <rect id="Rectangle_15" data-name="Rectangle 15" width="0.524" height="36.336" transform="matrix(0.461, 0.887, -0.887, 0.461, 182.43, 47.264)" fill="#48b2b4"/>
      <path id="Path_6" data-name="Path 6" d="M19.2,0,4.854,37.935,0,40.756l37.749,13,.171-.5L1.254,40.634l4.024-2.34.033-.087L19.69.185Z" transform="translate(181.924 7.321)" fill="#48b2b4"/>
      <rect id="Rectangle_16" data-name="Rectangle 16" width="37.088" height="0.524" transform="translate(178.744 3.999) rotate(75.132)" fill="#48b2b4"/>
      <path id="Path_7" data-name="Path 7" d="M18.565,0l-.483.2L31.456,31.916.263,13.8,0,14.249,32.547,33.156Z" transform="translate(152.634 6.127)" fill="#48b2b4"/>
      <rect id="Rectangle_17" data-name="Rectangle 17" width="36.193" height="0.524" transform="translate(163.881 9.523) rotate(62.229)" fill="#48b2b4"/>
      <rect id="Rectangle_18" data-name="Rectangle 18" width="38.43" height="0.524" transform="matrix(0.251, 0.968, -0.968, 0.251, 178.747, 4)" fill="#48b2b4"/>
      <rect id="Rectangle_19" data-name="Rectangle 19" width="0.524" height="37.088" transform="matrix(0.967, 0.257, -0.257, 0.967, 188.433, 3.999)" fill="#48b2b4"/>
      <path id="Path_8" data-name="Path 8" d="M40.718,0a40.728,40.728,0,0,0-15.85,78.235A40.728,40.728,0,0,0,56.568,3.2,40.465,40.465,0,0,0,40.718,0m0,77.169A36.462,36.462,0,0,1,26.53,7.13,36.461,36.461,0,0,1,54.906,74.306a36.225,36.225,0,0,1-14.188,2.863" transform="translate(142.605 1.805)" fill="#757474"/>
      <path id="Path_9" data-name="Path 9" d="M42.523,0A42.533,42.533,0,0,0,25.971,81.7a42.533,42.533,0,0,0,33.1-78.361A42.256,42.256,0,0,0,42.523,0m0,82.126a39.614,39.614,0,0,1-15.415-76.1,39.614,39.614,0,0,1,30.83,72.983,39.352,39.352,0,0,1-15.415,3.112" transform="translate(140.8 0)" fill="#48b2b4"/>
      <rect id="Rectangle_20" data-name="Rectangle 20" width="35.2" height="0.524" transform="matrix(0.388, 0.922, -0.922, 0.388, 182.255, 44.92)" fill="#48b2b4"/>
      <rect id="Rectangle_21" data-name="Rectangle 21" width="36.193" height="0.524" transform="translate(186.361 41.896) rotate(62.218)" fill="#48b2b4"/>
      <rect id="Rectangle_22" data-name="Rectangle 22" width="0.524" height="38.327" transform="matrix(0.812, 0.584, -0.584, 0.812, 179.473, 37.815)" fill="#48b2b4"/>
      <rect id="Rectangle_23" data-name="Rectangle 23" width="0.524" height="37.088" transform="matrix(0.967, 0.257, -0.257, 0.967, 187.222, 43.706)" fill="#48b2b4"/>
      <rect id="Rectangle_24" data-name="Rectangle 24" width="0.524" height="35.2" transform="translate(183.863 44.922) rotate(22.867)" fill="#48b2b4"/>
      <rect id="Rectangle_25" data-name="Rectangle 25" width="0.524" height="36.193" transform="matrix(0.885, 0.466, -0.466, 0.885, 179.75, 41.895)" fill="#48b2b4"/>
      <rect id="Rectangle_26" data-name="Rectangle 26" width="0.524" height="38.43" transform="matrix(0.968, 0.251, -0.251, 0.968, 187.369, 42.36)" fill="#48b2b4"/>
      <rect id="Rectangle_27" data-name="Rectangle 27" width="37.088" height="0.524" transform="translate(178.888 43.707) rotate(75.125)" fill="#48b2b4"/>
      <path id="Path_10" data-name="Path 10" d="M13.571,6.785a6.786,6.786,0,1,0-6.786,6.785,6.785,6.785,0,0,0,6.786-6.785" transform="translate(176.604 35.737)" fill="#c4c3c3"/>
      <rect id="Rectangle_28" data-name="Rectangle 28" width="0.524" height="36.755" transform="translate(80.178 34.941) rotate(72.511)" fill="#48b2b4"/>
      <rect id="Rectangle_29" data-name="Rectangle 29" width="0.524" height="38.959" transform="translate(77.779 27.669) rotate(68.058)" fill="#48b2b4"/>
      <rect id="Rectangle_30" data-name="Rectangle 30" width="0.524" height="39.966" transform="translate(68.334 15.259) rotate(35.742)" fill="#48b2b4"/>
      <rect id="Rectangle_31" data-name="Rectangle 31" width="0.524" height="37.315" transform="translate(81.485 43.065) rotate(81.719)" fill="#48b2b4"/>
      <rect id="Rectangle_32" data-name="Rectangle 32" width="38.496" height="0.524" transform="translate(44.457 40.457) rotate(15.291)" fill="#48b2b4"/>
      <rect id="Rectangle_33" data-name="Rectangle 33" width="35.811" height="0.524" transform="matrix(0.91, 0.414, -0.414, 0.91, 46.876, 43.085)" fill="#48b2b4"/>
      <path id="Path_11" data-name="Path 11" d="M.228,0,0,.472,36.9,18.258,66.527,40.62l.316-.418L37.172,17.808l-.023-.011Z" transform="translate(4.706 30.719)" fill="#48b2b4"/>
      <rect id="Rectangle_34" data-name="Rectangle 34" width="36.336" height="0.524" transform="translate(43.948 48.064) rotate(27.479)" fill="#48b2b4"/>
      <path id="Path_12" data-name="Path 12" d="M13.983,0,0,33.156,32.547,14.249l-.263-.453L1.092,31.916,14.465.2Z" transform="translate(41.195 6.928)" fill="#48b2b4"/>
      <rect id="Rectangle_35" data-name="Rectangle 35" width="0.524" height="36.193" transform="translate(62.497 10.325) rotate(27.775)" fill="#48b2b4"/>
      <rect id="Rectangle_36" data-name="Rectangle 36" width="36.754" height="0.524" transform="translate(5.397 34.944) rotate(17.479)" fill="#48b2b4"/>
      <rect id="Rectangle_37" data-name="Rectangle 37" width="38.959" height="0.524" transform="translate(7.796 27.672) rotate(21.933)" fill="#48b2b4"/>
      <rect id="Rectangle_38" data-name="Rectangle 38" width="39.966" height="0.524" transform="translate(17.243 15.258) rotate(54.263)" fill="#48b2b4"/>
      <rect id="Rectangle_39" data-name="Rectangle 39" width="38.095" height="0.524" transform="translate(4.092 43.061) rotate(8.303)" fill="#48b2b4"/>
      <rect id="Rectangle_40" data-name="Rectangle 40" width="0.524" height="38.496" transform="matrix(0.263, 0.965, -0.965, 0.263, 41.12, 40.461)" fill="#48b2b4"/>
      <rect id="Rectangle_41" data-name="Rectangle 41" width="0.524" height="35.811" transform="matrix(0.414, 0.91, -0.91, 0.414, 38.7, 43.085)" fill="#48b2b4"/>
      <rect id="Rectangle_42" data-name="Rectangle 42" width="0.524" height="36.336" transform="matrix(0.461, 0.887, -0.887, 0.461, 41.629, 48.065)" fill="#48b2b4"/>
      <path id="Path_13" data-name="Path 13" d="M19.2,0,4.854,37.934,0,40.756l37.749,13,.171-.5L1.253,40.634l4.025-2.34L19.69.185Z" transform="translate(41.123 8.123)" fill="#48b2b4"/>
      <rect id="Rectangle_43" data-name="Rectangle 43" width="37.089" height="0.524" transform="translate(37.944 4.8) rotate(75.132)" fill="#48b2b4"/>
      <path id="Path_14" data-name="Path 14" d="M18.565,0l-.483.2L31.456,31.916.263,13.8,0,14.249,32.547,33.156Z" transform="translate(11.834 6.928)" fill="#48b2b4"/>
      <rect id="Rectangle_44" data-name="Rectangle 44" width="36.193" height="0.524" transform="translate(23.077 10.326) rotate(62.217)" fill="#48b2b4"/>
      <rect id="Rectangle_45" data-name="Rectangle 45" width="38.43" height="0.524" transform="translate(37.946 4.801) rotate(75.442)" fill="#48b2b4"/>
      <rect id="Rectangle_46" data-name="Rectangle 46" width="0.524" height="37.089" transform="translate(47.632 4.8) rotate(14.868)" fill="#48b2b4"/>
      <path id="Path_15" data-name="Path 15" d="M40.718,0a40.728,40.728,0,0,0-15.85,78.235A40.728,40.728,0,0,0,56.568,3.2,40.462,40.462,0,0,0,40.718,0m0,77.169A36.462,36.462,0,0,1,26.53,7.13,36.461,36.461,0,0,1,54.906,74.306a36.225,36.225,0,0,1-14.188,2.863" transform="translate(1.805 2.606)" fill="#757474"/>
      <path id="Path_16" data-name="Path 16" d="M42.523,0A42.533,42.533,0,0,0,25.971,81.7a42.533,42.533,0,0,0,33.1-78.361A42.258,42.258,0,0,0,42.523,0m0,82.126a39.614,39.614,0,0,1-15.415-76.1,39.614,39.614,0,0,1,30.83,72.983,39.354,39.354,0,0,1-15.415,3.112" transform="translate(0 0.801)" fill="#48b2b4"/>
      <rect id="Rectangle_47" data-name="Rectangle 47" width="35.2" height="0.524" transform="translate(41.455 45.721) rotate(67.152)" fill="#48b2b4"/>
      <rect id="Rectangle_48" data-name="Rectangle 48" width="36.193" height="0.524" transform="translate(45.567 42.694) rotate(62.242)" fill="#48b2b4"/>
      <rect id="Rectangle_49" data-name="Rectangle 49" width="0.524" height="38.327" transform="translate(38.673 38.616) rotate(35.742)" fill="#48b2b4"/>
      <rect id="Rectangle_50" data-name="Rectangle 50" width="0.524" height="37.088" transform="matrix(0.967, 0.257, -0.257, 0.967, 46.422, 44.508)" fill="#48b2b4"/>
      <rect id="Rectangle_51" data-name="Rectangle 51" width="0.524" height="35.2" transform="translate(43.062 45.723) rotate(22.866)" fill="#48b2b4"/>
      <rect id="Rectangle_52" data-name="Rectangle 52" width="0.524" height="36.193" transform="translate(38.949 42.696) rotate(27.775)" fill="#48b2b4"/>
      <rect id="Rectangle_53" data-name="Rectangle 53" width="0.524" height="38.43" transform="matrix(0.968, 0.251, -0.251, 0.968, 46.569, 43.161)" fill="#48b2b4"/>
      <rect id="Rectangle_54" data-name="Rectangle 54" width="37.088" height="0.524" transform="translate(38.09 44.508) rotate(75.132)" fill="#48b2b4"/>
      <path id="Path_17" data-name="Path 17" d="M13.571,6.785a6.786,6.786,0,1,0-6.785,6.785,6.786,6.786,0,0,0,6.785-6.785" transform="translate(35.804 36.538)" fill="#c4c3c3"/>
      <rect id="Rectangle_55" data-name="Rectangle 55" width="79.144" height="4.491" transform="translate(76.537 105.927)" fill="#48b2b4"/>
      <path id="Path_18" data-name="Path 18" d="M27.6,0,0,96.381l4.318,1.236L29.7,8.969l57.48,63.007L90.5,68.949Z" transform="translate(69.652 27.163)" fill="#48b2b4"/>
      <path id="Path_19" data-name="Path 19" d="M12.139,24.278A12.139,12.139,0,1,1,24.278,12.139,12.139,12.139,0,0,1,12.139,24.278m-6.08-5.112.893-1.844.893-1.844a1.662,1.662,0,0,0-1-2.122l-1.992-.484-1.991-.484c-2.546-.645,2.078,9.08,3.2,6.778M8.9,7.844,8.628,5.813,8.354,3.782C8.029,1.176.652,9.021,3.2,9.225l2.043.162,2.043.161A1.662,1.662,0,0,0,8.9,7.844m2.556,9.778L10.444,19.4,9.43,21.183c-1.322,2.269,9.3.506,7.4-1.2L15.3,18.612l-1.526-1.367a1.662,1.662,0,0,0-2.315.377M12.093,2.73l.459,2,.459,2A1.662,1.662,0,0,0,15.12,7.751l1.855-.871,1.855-.871c2.388-1.092-7.31-5.775-6.738-3.279m9.062,7.04-1.793.992-1.793.992a1.662,1.662,0,0,0-.405,2.311l1.349,1.543,1.348,1.543c1.708,1.994,3.535-8.618,1.294-7.381" transform="translate(85.687 19.508)" fill="#757474"/>
      <path id="Path_20" data-name="Path 20" d="M34.952,0a2.234,2.234,0,0,0-1.295.412C26.033,5.805,20.766,16.124,19.535,20L.357,80.4A4.688,4.688,0,0,0,.671,84.59a3.511,3.511,0,0,0,3.136,1.4c2.014-.077,8.243-.011,9.25,0,9.451,1.282,20.076,2.837,21.82,3.286a61.737,61.737,0,0,1,6.343,6.3,2.246,2.246,0,0,0,4.146-1.627c-.129-.517-.251-1-3.848-4.632-3.548-3.579-4.422-3.976-4.8-4.146-.458-.208-1.085-.493-12.37-2.128-5.432-.787-10.776-1.512-10.83-1.519a2.257,2.257,0,0,0-.275-.02c-.26,0-5.629-.067-8.522-.025L23.815,21.362c.928-2.923,5.6-12.448,12.436-17.283A2.246,2.246,0,0,0,34.952,0m6.059,95.041,0-.005,0,.005m0,0v0" transform="translate(148.368 40.57)" fill="#48b2b4"/>
      <path id="Path_21" data-name="Path 21" d="M60.142,0a2.24,2.24,0,0,0-.428.041L1.82,11.21A2.246,2.246,0,0,0,.28,14.5L36.409,79.858a2.245,2.245,0,1,0,3.93-2.173L5.707,15.034,60.565,4.451A2.246,2.246,0,0,0,60.142,0" transform="translate(38.163 29.402)" fill="#48b2b4"/>
      <path id="Path_22" data-name="Path 22" d="M8.163.309S.757-.926.449,1.543s-1.419,8.948,1.666,9.01,12.713-2.962,22.463-2.16S39.512,8.7,39.944,6.48,39.7,4.011,37.6,4.011a9.313,9.313,0,0,1-5.431-1.3C30.07,1.543,26.912.8,22.32,1.234S8.163.309,8.163.309" transform="translate(53.268 121.618)" fill="#757474"/>
    </g>
  </g>
</svg>
