<svg id="Group_5" data-name="Group 5" xmlns="http://www.w3.org/2000/svg" xmlns:xlink="http://www.w3.org/1999/xlink" width="1167.991" height="1167.991" viewBox="0 0 1167.991 1167.991">
  <defs>
    <clipPath id="clip-path">
      <rect id="Rectangle_84" data-name="Rectangle 84" width="1167.991" height="1167.991" fill="none"/>
    </clipPath>
  </defs>
  <rect id="Rectangle_57" data-name="Rectangle 57" width="7.196" height="504.776" transform="translate(619.7 547.42) rotate(-72.511)" fill="#48b2b4"/>
  <rect id="Rectangle_58" data-name="Rectangle 58" width="7.195" height="535.048" transform="matrix(0.374, -0.928, 0.928, 0.374, 571.908, 599.054)" fill="#48b2b4"/>
  <rect id="Rectangle_59" data-name="Rectangle 59" width="7.196" height="548.887" transform="matrix(0.812, -0.584, 0.584, 0.812, 617.861, 523.931)" fill="#48b2b4"/>
  <rect id="Rectangle_60" data-name="Rectangle 60" width="7.195" height="512.472" transform="translate(611.963 513.744) rotate(-81.719)" fill="#48b2b4"/>
  <rect id="Rectangle_61" data-name="Rectangle 61" width="528.694" height="7.196" transform="translate(608.65 616.372) rotate(-15.278)" fill="#48b2b4"/>
  <rect id="Rectangle_62" data-name="Rectangle 62" width="491.825" height="7.195" transform="translate(640.789 580.689) rotate(-24.438)" fill="#48b2b4"/>
  <path id="Path_23" data-name="Path 23" d="M41.235,675.344l-3.126-6.482L544.846,424.6,951.78,117.484l4.335,5.744-407.5,307.545-.32.153Z" transform="translate(26.523 81.764)" fill="#48b2b4"/>
  <rect id="Rectangle_63" data-name="Rectangle 63" width="499.034" height="7.197" transform="matrix(0.887, -0.461, 0.461, 0.887, 600.243, 512.506)" fill="#48b2b4"/>
  <path id="Path_24" data-name="Path 24" d="M525.625,825.939,333.59,370.582l447,259.669-3.614,6.222L348.582,387.613,532.256,823.144Z" transform="translate(232.165 257.911)" fill="#48b2b4"/>
  <rect id="Rectangle_64" data-name="Rectangle 64" width="7.196" height="497.065" transform="translate(626.686 597.395) rotate(-27.775)" fill="#48b2b4"/>
  <rect id="Rectangle_65" data-name="Rectangle 65" width="504.776" height="7.196" transform="translate(71.974 692.245) rotate(-17.487)" fill="#48b2b4"/>
  <rect id="Rectangle_66" data-name="Rectangle 66" width="535.048" height="7.195" transform="translate(104.384 792.28) rotate(-21.934)" fill="#48b2b4"/>
  <rect id="Rectangle_67" data-name="Rectangle 67" width="548.887" height="7.196" transform="translate(230.938 965.221) rotate(-54.254)" fill="#48b2b4"/>
  <rect id="Rectangle_68" data-name="Rectangle 68" width="523.181" height="7.196" transform="matrix(0.99, -0.144, 0.144, 0.99, 55.155, 580.448)" fill="#48b2b4"/>
  <rect id="Rectangle_69" data-name="Rectangle 69" width="7.196" height="528.694" transform="translate(54.724 484.009) rotate(-74.723)" fill="#48b2b4"/>
  <rect id="Rectangle_70" data-name="Rectangle 70" width="7.196" height="491.825" transform="matrix(0.414, -0.91, 0.91, 0.414, 83.77, 383.734)" fill="#48b2b4"/>
  <rect id="Rectangle_71" data-name="Rectangle 71" width="7.197" height="499.035" transform="translate(128.971 288.652) rotate(-62.526)" fill="#48b2b4"/>
  <path id="Path_25" data-name="Path 25" d="M596.7,932.334,399.675,411.35,333.014,372.6,851.448,194.129l2.342,6.8L350.228,374.283l55.273,32.13L603.433,929.788Z" transform="translate(231.764 135.106)" fill="#48b2b4"/>
  <rect id="Rectangle_72" data-name="Rectangle 72" width="509.365" height="7.196" transform="matrix(0.257, -0.967, 0.967, 0.257, 514.142, 1111.221)" fill="#48b2b4"/>
  <path id="Path_26" data-name="Path 26" d="M350.8,825.939l-6.631-2.8L527.84,387.613,99.445,636.473l-3.614-6.222,447-259.669Z" transform="translate(66.695 257.911)" fill="#48b2b4"/>
  <rect id="Rectangle_73" data-name="Rectangle 73" width="497.065" height="7.196" transform="matrix(0.466, -0.885, 0.885, 0.466, 310.605, 1033.841)" fill="#48b2b4"/>
  <rect id="Rectangle_74" data-name="Rectangle 74" width="527.785" height="7.197" transform="matrix(0.251, -0.968, 0.968, 0.251, 514.157, 1111.245)" fill="#48b2b4"/>
  <rect id="Rectangle_75" data-name="Rectangle 75" width="7.196" height="509.365" transform="matrix(0.967, -0.257, 0.257, 0.967, 523.471, 620.76)" fill="#48b2b4"/>
  <g id="Group_4" data-name="Group 4">
    <g id="Group_3" data-name="Group 3" clip-path="url(#clip-path)">
      <rect id="Rectangle_76" data-name="Rectangle 76" width="483.434" height="7.197" transform="translate(562.672 548.266) rotate(-67.146)" fill="#48b2b4"/>
      <rect id="Rectangle_77" data-name="Rectangle 77" width="497.065" height="7.196" transform="matrix(0.466, -0.885, 0.885, 0.466, 619.339, 589.238)" fill="#48b2b4"/>
      <rect id="Rectangle_78" data-name="Rectangle 78" width="7.197" height="526.375" transform="matrix(0.812, -0.584, 0.584, 0.812, 223.645, 221.419)" fill="#48b2b4"/>
      <rect id="Rectangle_79" data-name="Rectangle 79" width="7.196" height="509.365" transform="matrix(0.967, -0.257, 0.257, 0.967, 506.845, 75.428)" fill="#48b2b4"/>
      <rect id="Rectangle_80" data-name="Rectangle 80" width="7.197" height="483.434" transform="translate(403.552 105.599) rotate(-22.866)" fill="#48b2b4"/>
      <rect id="Rectangle_81" data-name="Rectangle 81" width="7.196" height="497.065" transform="translate(303.287 152.815) rotate(-27.775)" fill="#48b2b4"/>
      <rect id="Rectangle_82" data-name="Rectangle 82" width="7.197" height="527.785" transform="translate(506.84 75.409) rotate(-14.565)" fill="#48b2b4"/>
      <rect id="Rectangle_83" data-name="Rectangle 83" width="509.365" height="7.196" transform="translate(516.204 565.905) rotate(-75.142)" fill="#48b2b4"/>
      <path id="Path_29" data-name="Path 29" d="M476.315,382.587a93.19,93.19,0,1,1-93.19-93.19,93.19,93.19,0,0,1,93.19,93.19" transform="translate(201.784 201.409)" fill="#c4c3c3" stroke="#aaa" stroke-width="10"/>
      <path id="Path_32" data-name="Path 32" d="M377.184,333.021A43.624,43.624,0,1,1,333.56,289.4a43.624,43.624,0,0,1,43.624,43.624" transform="translate(251.35 250.975)" fill="#aaa" stroke="#aaa" stroke-width="10"/>
      <path id="Path_27" data-name="Path 27" d="M573.825,1133.036A559.351,559.351,0,0,1,356.145,58.572,559.348,559.348,0,0,1,791.5,1089.078a555.763,555.763,0,0,1-217.68,43.958m0-1059.826a500.755,500.755,0,0,0-194.852,961.9,500.753,500.753,0,0,0,389.7-922.574A497.463,497.463,0,0,0,573.825,73.209" transform="translate(10.171 10.171)" fill="#757474"/>
      <path id="Path_28" data-name="Path 28" d="M584,1167.992A584.144,584.144,0,0,1,356.672,45.9,584.141,584.141,0,0,1,811.319,1122.089,580.33,580.33,0,0,1,584,1167.992m0-1127.9A544.052,544.052,0,0,0,372.289,1085.165,544.05,544.05,0,0,0,795.7,82.826,540.489,540.489,0,0,0,584,40.092" transform="translate(0 -0.001)" fill="#48b2b4"/>
    </g>
  </g>
</svg>
